<?xml version="1.0" encoding="UTF-8"?>
<!DOCTYPE svg PUBLIC "-//W3C//DTD SVG 1.1//EN" "http://www.w3.org/Graphics/SVG/1.1/DTD/svg11.dtd">
<svg version="1.1" xmlns="http://www.w3.org/2000/svg" xmlns:xlink="http://www.w3.org/1999/xlink" x="0" y="0" width="2048" height="770" viewBox="0, 0, 2048, 770">
  <g id="Background">
    <rect x="0" y="0" width="2048" height="770" fill="url(#Gradient_1)"/>
  </g>
  <defs>
    <linearGradient id="Gradient_1" gradientUnits="userSpaceOnUse" x1="1024" y1="770" x2="1024" y2="0">
      <stop offset="0" stop-color="#03A1BD"/>
      <stop offset="1" stop-color="#003E49"/>
    </linearGradient>
    <linearGradient id="Gradient_2" gradientUnits="userSpaceOnUse" x1="-1799" y1="485.97" x2="-1506" y2="485.97" gradientTransform="matrix(-1, 0, 0, 1, 0, 0)">
      <stop offset="0.511" stop-color="#0F434D"/>
      <stop offset="0.516" stop-color="#0D3840"/>
    </linearGradient>
    <linearGradient id="Gradient_3" gradientUnits="userSpaceOnUse" x1="-1851" y1="541.969" x2="-1635" y2="541.969" gradientTransform="matrix(-1, 0, 0, 1, 0, 0)">
      <stop offset="0.511" stop-color="#0F434D"/>
      <stop offset="0.516" stop-color="#0D3840"/>
    </linearGradient>
    <linearGradient id="Gradient_4" gradientUnits="userSpaceOnUse" x1="-1513" y1="465.97" x2="-1144" y2="465.97" gradientTransform="matrix(-1, 0, 0, 1, 0, 0)">
      <stop offset="0.511" stop-color="#0F434D"/>
      <stop offset="0.516" stop-color="#0D3840"/>
    </linearGradient>
    <linearGradient id="Gradient_5" gradientUnits="userSpaceOnUse" x1="-1740" y1="413.47" x2="-1258" y2="413.47" gradientTransform="matrix(-1, 0, 0, 1, 0, 0)">
      <stop offset="0.511" stop-color="#0F434D"/>
      <stop offset="0.516" stop-color="#0D3840"/>
    </linearGradient>
    <clipPath id="Clip_1">
      <path d="M1532.607,431.438 L1707,431.438 L1707,654.969 L1532.607,654.969 z M1619.803,439.438 L1577.474,482.69 L1602.569,482.69 L1570.777,513.078 L1598.59,513.078 L1563.234,546.551 L1591.309,546.551 L1555.692,580.024 L1587.957,580.024 L1548.149,613.497 L1584.605,613.497 L1540.607,646.969 L1699,646.969 L1655.002,613.497 L1691.457,613.497 L1651.65,580.024 L1683.915,580.024 L1648.297,546.551 L1676.372,546.551 L1641.017,513.078 L1668.83,513.078 L1637.037,482.69 L1662.133,482.69 L1619.803,439.438 z"/>
    </clipPath>
    <filter id="Shadow_2">
      <feGaussianBlur in="SourceAlpha" stdDeviation="3"/>
      <feOffset dx="1" dy="1" result="offsetblur"/>
      <feFlood flood-color="#000000"/>
      <feComposite in2="offsetblur" operator="in"/>
    </filter>
    <linearGradient id="Gradient_6" gradientUnits="userSpaceOnUse" x1="-1668.83" y1="489.648" x2="-1570.777" y2="489.648" gradientTransform="matrix(-1, 0, 0, 1, 0, 0)">
      <stop offset="0.5" stop-color="#133140"/>
      <stop offset="0.504" stop-color="#0F2833"/>
    </linearGradient>
    <clipPath id="Clip_3">
      <path d="M1285,470.681 L1445.441,470.681 L1445.441,654.969 L1285,654.969 z M1365.221,478.681 L1326.62,513.754 L1349.505,513.754 L1320.513,538.396 L1345.876,538.396 L1313.634,565.539 L1339.236,565.539 L1306.756,592.683 L1336.179,592.683 L1299.878,619.826 L1333.123,619.826 L1293,646.969 L1437.441,646.969 L1397.319,619.826 L1430.563,619.826 L1394.262,592.683 L1423.685,592.683 L1391.205,565.539 L1416.807,565.539 L1384.566,538.396 L1409.929,538.396 L1380.937,513.754 L1403.822,513.754 L1365.221,478.681 z"/>
    </clipPath>
    <filter id="Shadow_4">
      <feGaussianBlur in="SourceAlpha" stdDeviation="3"/>
      <feOffset dx="1" dy="1" result="offsetblur"/>
      <feFlood flood-color="#000000"/>
      <feComposite in2="offsetblur" operator="in"/>
    </filter>
    <linearGradient id="Gradient_7" gradientUnits="userSpaceOnUse" x1="-1409.929" y1="519.396" x2="-1320.513" y2="519.396" gradientTransform="matrix(-1, 0, 0, 1, 0, 0)">
      <stop offset="0.5" stop-color="#133140"/>
      <stop offset="0.504" stop-color="#0F2833"/>
    </linearGradient>
    <clipPath id="Clip_5">
      <path d="M1399.441,395.969 L1588.607,395.969 L1588.607,654.969 L1399.441,654.969 z M1494.024,403.969 L1447.747,454.613 L1475.182,454.613 L1440.425,490.195 L1470.832,490.195 L1432.179,529.389 L1462.873,529.389 L1423.933,568.582 L1459.208,568.582 L1415.687,607.776 L1455.543,607.776 L1407.441,646.969 L1580.607,646.969 L1532.505,607.776 L1572.361,607.776 L1528.84,568.582 L1564.115,568.582 L1525.176,529.389 L1555.869,529.389 L1517.216,490.195 L1547.623,490.195 L1512.866,454.613 L1540.302,454.613 L1494.024,403.969 z"/>
    </clipPath>
    <filter id="Shadow_6">
      <feGaussianBlur in="SourceAlpha" stdDeviation="3"/>
      <feOffset dx="1" dy="1" result="offsetblur"/>
      <feFlood flood-color="#000000"/>
      <feComposite in2="offsetblur" operator="in"/>
    </filter>
    <linearGradient id="Gradient_8" gradientUnits="userSpaceOnUse" x1="-1547.623" y1="462.76" x2="-1440.425" y2="462.76" gradientTransform="matrix(-1, 0, 0, 1, 0, 0)">
      <stop offset="0.5" stop-color="#133140"/>
      <stop offset="0.504" stop-color="#0F2833"/>
    </linearGradient>
    <linearGradient id="Gradient_9" gradientUnits="userSpaceOnUse" x1="-2018.839" y1="442.435" x2="-2018.839" y2="330.771" gradientTransform="matrix(-1, 0, -0.636, 1, 0, 0)">
      <stop offset="0.349" stop-color="#000000" stop-opacity="0"/>
      <stop offset="0.845" stop-color="#000000" stop-opacity="0.15"/>
    </linearGradient>
    <linearGradient id="Gradient_10" gradientUnits="userSpaceOnUse" x1="-1540.678" y1="475.377" x2="-1540.678" y2="338.54" gradientTransform="matrix(-1, 0, -0.636, 1, 0, 0)">
      <stop offset="0.349" stop-color="#000000" stop-opacity="0"/>
      <stop offset="0.845" stop-color="#000000" stop-opacity="0.15"/>
    </linearGradient>
    <linearGradient id="Gradient_11" gradientUnits="userSpaceOnUse" x1="-1706.551" y1="388.173" x2="-1706.551" y2="239.287" gradientTransform="matrix(-1, 0, -0.636, 1, 0, 0)">
      <stop offset="0.349" stop-color="#000000" stop-opacity="0"/>
      <stop offset="0.845" stop-color="#000000" stop-opacity="0.15"/>
    </linearGradient>
    <clipPath id="Clip_7">
      <path d="M1546.543,497.955 L1649.769,497.955 L1649.769,601.182 L1546.543,601.182 z M1598.156,501.955 C1571.86,501.955 1550.543,523.273 1550.543,549.569 C1550.543,575.865 1571.86,597.182 1598.156,597.182 C1624.452,597.182 1645.769,575.865 1645.769,549.569 C1645.769,523.273 1624.452,501.955 1598.156,501.955 z"/>
    </clipPath>
    <filter id="Shadow_8">
      <feGaussianBlur in="SourceAlpha" stdDeviation="1.5"/>
      <feOffset dx="0" dy="0" result="offsetblur"/>
      <feFlood flood-color="#000000"/>
      <feComposite in2="offsetblur" operator="in"/>
    </filter>
    <linearGradient id="Gradient_12" gradientUnits="userSpaceOnUse" x1="1574.101" y1="492.102" x2="1592.365" y2="566.232">
      <stop offset="0" stop-color="#03A1BD"/>
      <stop offset="1" stop-color="#003E49"/>
    </linearGradient>
    <clipPath id="Clip_9">
      <path d="M1615.635,533.146 L1695.199,533.146 L1695.199,612.711 L1615.635,612.711 z M1655.417,537.146 C1635.655,537.146 1619.635,553.167 1619.635,572.928 C1619.635,592.69 1635.655,608.711 1655.417,608.711 C1675.179,608.711 1691.199,592.69 1691.199,572.928 C1691.199,553.167 1675.179,537.146 1655.417,537.146 z"/>
    </clipPath>
    <filter id="Shadow_10">
      <feGaussianBlur in="SourceAlpha" stdDeviation="1.5"/>
      <feOffset dx="0" dy="0" result="offsetblur"/>
      <feFlood flood-color="#000000"/>
      <feComposite in2="offsetblur" operator="in"/>
    </filter>
    <linearGradient id="Gradient_13" gradientUnits="userSpaceOnUse" x1="-1673.495" y1="529.742" x2="-1659.769" y2="585.451" gradientTransform="matrix(-1, 0, 0, 1, 0, 0)">
      <stop offset="0" stop-color="#03A1BD"/>
      <stop offset="1" stop-color="#003E49"/>
    </linearGradient>
    <clipPath id="Clip_11">
      <path d="M1228.205,533.146 L1307.769,533.146 L1307.769,612.711 L1228.205,612.711 z M1267.987,537.146 C1248.225,537.146 1232.205,553.167 1232.205,572.928 C1232.205,592.69 1248.225,608.711 1267.987,608.711 C1287.749,608.711 1303.769,592.69 1303.769,572.928 C1303.769,553.167 1287.749,537.146 1267.987,537.146 z"/>
    </clipPath>
    <filter id="Shadow_12">
      <feGaussianBlur in="SourceAlpha" stdDeviation="1.5"/>
      <feOffset dx="0" dy="0" result="offsetblur"/>
      <feFlood flood-color="#000000"/>
      <feComposite in2="offsetblur" operator="in"/>
    </filter>
    <linearGradient id="Gradient_14" gradientUnits="userSpaceOnUse" x1="-1286.064" y1="529.742" x2="-1272.339" y2="585.451" gradientTransform="matrix(-1, 0, 0, 1, 0, 0)">
      <stop offset="0" stop-color="#03A1BD"/>
      <stop offset="1" stop-color="#003E49"/>
    </linearGradient>
    <linearGradient id="Gradient_15" gradientUnits="userSpaceOnUse" x1="1425.738" y1="591.506" x2="1570.451" y2="591.506">
      <stop offset="0.496" stop-color="#A44605"/>
      <stop offset="0.499" stop-color="#E86407"/>
    </linearGradient>
    <linearGradient id="Gradient_16" gradientUnits="userSpaceOnUse" x1="1425.738" y1="578.886" x2="1570.451" y2="578.886">
      <stop offset="0.496" stop-color="#A46031"/>
      <stop offset="0.499" stop-color="#E88036"/>
    </linearGradient>
    <clipPath id="Clip_13">
      <path d="M1278.031,567.213 L1389.953,567.213 L1389.953,694.641 L1278.031,694.641 z M1333.992,603.213 C1326.577,625.661 1314.659,623.444 1314.031,640.627 C1314.031,650.576 1322.968,658.641 1333.992,658.641 C1345.016,658.641 1353.953,650.576 1353.953,640.627 C1353.787,635.514 1351.95,629.609 1349.204,623.885 C1348.869,623.187 1347.979,627.149 1343.615,628.464 C1345.4,626.009 1347.467,620.497 1347.106,619.853 C1343.341,613.146 1338.528,607.036 1333.992,603.213 z"/>
    </clipPath>
    <filter id="Shadow_14">
      <feGaussianBlur in="SourceAlpha" stdDeviation="17.5"/>
      <feOffset dx="0" dy="0" result="offsetblur"/>
      <feFlood flood-color="#FFE436"/>
      <feComposite in2="offsetblur" operator="in"/>
    </filter>
    <linearGradient id="Gradient_17" gradientUnits="userSpaceOnUse" x1="-1333.992" y1="628.013" x2="-1333.992" y2="658.016" gradientTransform="matrix(-1, 0, 0, 1, 0, 0)">
      <stop offset="0" stop-color="#FFAA08"/>
      <stop offset="0.984" stop-color="#FF5300"/>
    </linearGradient>
  </defs>
  <g id="Ebene_1"/>
  <g id="Berge">
    <path d="M1799,646.97 C1799,646.97 1649,324.97 1649,324.97 C1649,324.97 1506,646.97 1506,646.97" fill="url(#Gradient_2)"/>
    <path d="M1851,646.969 C1851,646.969 1740,436.969 1740,436.969 C1740,436.969 1635,646.969 1635,646.969" fill="url(#Gradient_3)"/>
    <path d="M1513,646.97 C1513,646.97 1324,284.97 1324,284.97 C1324,284.97 1144,646.97 1144,646.97" fill="url(#Gradient_4)"/>
    <path d="M1740,646.97 C1740,646.97 1492,179.969 1492,179.969 C1492,179.969 1258,646.97 1258,646.97" fill="url(#Gradient_5)"/>
  </g>
  <g id="Bäume">
    <g>
      <path d="M1619.803,439.438 L1662.133,482.69 L1637.037,482.69 L1668.83,513.078 L1641.017,513.078 L1676.372,546.551 L1648.297,546.551 L1683.915,580.024 L1651.65,580.024 L1691.457,613.497 L1655.002,613.497 L1699,646.969 L1540.607,646.969 L1584.605,613.497 L1548.149,613.497 L1587.957,580.024 L1555.692,580.024 L1591.309,546.551 L1563.234,546.551 L1598.59,513.078 L1570.777,513.078 L1602.569,482.69 L1577.474,482.69 L1619.803,439.438 z" clip-path="url(#Clip_1)" filter="url(#Shadow_2)" fill="rgba(0,0,0,0.75)"/>
      <path d="M1619.803,439.438 L1577.474,482.69 L1602.569,482.69 L1570.777,513.078 L1598.59,513.078 L1563.234,546.551 L1591.309,546.551 L1555.692,580.024 L1587.957,580.024 L1548.149,613.497 L1584.605,613.497 L1540.607,646.969 L1699,646.969 L1655.002,613.497 L1691.457,613.497 L1651.65,580.024 L1683.915,580.024 L1648.297,546.551 L1676.372,546.551 L1641.017,513.078 L1668.83,513.078 L1637.038,482.69 L1662.133,482.69 L1619.803,439.438 z" fill="url(#Gradient_6)"/>
    </g>
    <g>
      <path d="M1365.221,478.681 L1403.822,513.754 L1380.937,513.754 L1409.929,538.396 L1384.566,538.396 L1416.807,565.539 L1391.205,565.539 L1423.685,592.683 L1394.262,592.683 L1430.563,619.826 L1397.319,619.826 L1437.441,646.969 L1293,646.969 L1333.123,619.826 L1299.878,619.826 L1336.179,592.683 L1306.756,592.683 L1339.236,565.539 L1313.634,565.539 L1345.876,538.396 L1320.513,538.396 L1349.505,513.754 L1326.62,513.754 L1365.221,478.681 z" clip-path="url(#Clip_3)" filter="url(#Shadow_4)" fill="rgba(0,0,0,0.75)"/>
      <path d="M1365.221,478.681 L1326.62,513.754 L1349.505,513.754 L1320.513,538.396 L1345.876,538.396 L1313.635,565.539 L1339.237,565.539 L1306.756,592.683 L1336.18,592.683 L1299.878,619.826 L1333.123,619.826 L1293,646.97 L1437.441,646.969 L1397.319,619.826 L1430.563,619.826 L1394.262,592.683 L1423.685,592.683 L1391.205,565.539 L1416.807,565.539 L1384.566,538.396 L1409.929,538.396 L1380.937,513.754 L1403.822,513.754 L1365.221,478.681 z" fill="url(#Gradient_7)"/>
    </g>
    <g>
      <path d="M1494.024,403.969 L1540.302,454.613 L1512.866,454.613 L1547.623,490.195 L1517.216,490.195 L1555.869,529.389 L1525.176,529.389 L1564.115,568.582 L1528.84,568.582 L1572.361,607.776 L1532.505,607.776 L1580.607,646.969 L1407.441,646.969 L1455.543,607.776 L1415.687,607.776 L1459.208,568.582 L1423.933,568.582 L1462.873,529.389 L1432.179,529.389 L1470.832,490.195 L1440.425,490.195 L1475.182,454.613 L1447.747,454.613 L1494.024,403.969 z" clip-path="url(#Clip_5)" filter="url(#Shadow_6)" fill="rgba(0,0,0,0.75)"/>
      <path d="M1494.024,403.969 L1447.747,454.613 L1475.183,454.613 L1440.425,490.195 L1470.832,490.195 L1432.179,529.389 L1462.873,529.389 L1423.933,568.582 L1459.208,568.582 L1415.687,607.776 L1455.543,607.776 L1407.441,646.969 L1580.607,646.969 L1532.505,607.776 L1572.361,607.776 L1528.84,568.582 L1564.115,568.582 L1525.176,529.389 L1555.869,529.389 L1517.216,490.195 L1547.623,490.195 L1512.866,454.613 L1540.302,454.613 L1494.024,403.969 z" fill="url(#Gradient_8)"/>
    </g>
  </g>
  <g id="Büsche">
    <path d="M1662.849,583.578 C1651.847,583.731 1641.632,589.071 1639.382,596.963 C1636.806,595.783 1633.715,595.452 1630.734,595.344 C1620.911,595.344 1612.948,601.042 1612.948,608.071 C1613.088,610.057 1612.918,608.947 1613.614,611.388 C1607.854,613.105 1603.757,616.408 1601.158,620.391 C1598.696,621.541 1600.087,620.857 1597.036,622.493 C1595.006,622.189 1596.121,622.303 1593.679,622.212 C1583.037,622.213 1574.41,628.544 1574.41,636.354 C1574.492,638.863 1575.225,641.453 1577.182,643.578 L1811.495,643.578 C1813.89,641.219 1814.977,638.363 1815.999,635.585 C1821.549,633.005 1824.095,628.56 1824.41,623.98 C1824.41,616.17 1815.783,609.839 1805.141,609.839 C1803.112,609.888 1801.005,609.981 1799.111,610.568 C1794.657,608.514 1789.657,607.587 1784.489,607.056 C1780.595,599.492 1772.395,595.207 1761.169,594.792 C1749.05,594.942 1739.364,601.097 1737.031,609.491 C1732.345,610.093 1728.64,612.08 1725.681,614.651 C1722.077,611.58 1717.013,610.219 1711.568,609.859 C1711.794,609.044 1711.655,609.633 1711.762,608.071 C1711.762,600.262 1703.135,593.93 1692.493,593.93 C1690.08,593.911 1687.708,594.273 1685.502,594.957 C1681.662,587.805 1673.395,583.959 1662.849,583.578 z" fill="#0F2733"/>
    <path d="M1314.352,583.578 C1325.486,583.731 1335.823,589.071 1338.1,596.963 C1340.707,595.783 1343.836,595.452 1346.852,595.344 C1356.793,595.344 1364.852,601.042 1364.852,608.071 C1364.71,610.057 1364.881,608.947 1364.177,611.388 C1370.006,613.105 1374.153,616.408 1376.783,620.391 C1379.274,621.541 1377.867,620.857 1380.954,622.493 C1383.009,622.189 1381.88,622.303 1384.352,622.212 C1395.121,622.213 1403.852,628.544 1403.852,636.354 C1403.769,638.863 1403.027,641.453 1401.047,643.578 L1163.922,643.578 C1161.498,641.219 1160.398,638.363 1159.364,635.585 C1153.747,633.005 1151.17,628.56 1150.852,623.98 C1150.852,616.17 1159.582,609.839 1170.352,609.839 C1172.405,609.888 1174.537,609.981 1176.454,610.568 C1180.962,608.514 1186.022,607.587 1191.252,607.056 C1195.193,599.492 1203.491,595.207 1214.852,594.792 C1227.116,594.942 1236.918,601.097 1239.279,609.491 C1244.022,610.093 1247.771,612.08 1250.765,614.651 C1254.412,611.58 1259.538,610.219 1265.048,609.859 C1264.819,609.044 1264.96,609.633 1264.852,608.071 C1264.852,600.262 1273.582,593.93 1284.352,593.93 C1286.793,593.911 1289.194,594.273 1291.427,594.957 C1295.313,587.805 1303.679,583.959 1314.352,583.578 z" fill="#0F2733"/>
  </g>
  <g id="Wolken">
    <g>
      <path d="M1877.948,330.771 L1738.969,330.771 L1667.948,442.435 L1806.926,442.435 L1877.948,330.771 z" fill="url(#Gradient_9)"/>
      <path d="M1805.091,286.793 C1795.565,287.026 1788.298,292.214 1784.63,300.897 C1783.365,300.639 1784.155,300.762 1782.242,300.666 C1775.158,300.794 1768.79,305.294 1766.655,312.133 C1766.353,313.101 1766.25,314.12 1766.047,315.114 C1764.711,314.115 1763.059,313.804 1761.433,313.722 C1756.701,313.722 1752.864,317.559 1752.864,322.291 C1752.922,323.43 1752.85,322.88 1753.067,323.942 C1751.536,322.769 1749.646,322.386 1747.764,322.291 C1743.353,322.373 1739.352,325.374 1738.455,329.771 L1877.433,329.771 C1877.691,328.627 1877.558,329.347 1877.718,327.595 C1877.59,320.43 1872.046,314.137 1864.736,313.767 C1862.327,309.629 1858.373,307.433 1853.645,307.194 C1847.853,307.304 1842.553,311.24 1841.373,317.026 C1839.248,314.769 1836.252,313.874 1833.244,313.722 C1829.898,313.785 1828.335,314.651 1825.672,316.47 C1826.859,314.11 1826.994,311.41 1827.124,308.826 C1827.124,296.658 1817.259,286.793 1805.091,286.793 z M1757.042,329.618 L1757.198,329.705 L1757.07,329.752 L1757.042,329.618 z" fill="#D3F0FF"/>
    </g>
    <g>
      <path d="M1396.84,338.54 L1244.626,338.54 L1166.84,475.377 L1319.054,475.377 L1396.84,338.54 z" fill="url(#Gradient_10)"/>
      <path d="M1281.76,306.793 C1291.785,306.793 1299.913,314.921 1299.913,324.946 L1299.843,326.314 C1302.287,327.138 1303.303,329.463 1303.543,331.844 L1303.489,332.379 C1305.196,332.94 1304.502,332.585 1305.638,333.293 C1313.647,332.994 1310.885,333.024 1313.919,332.995 L1314.317,332.933 L1314.948,332.986 L1319.26,332.946 C1321.285,328.741 1325.801,327.058 1330.11,326.58 C1332.139,326.679 1334.407,326.963 1336.142,328.133 C1336.453,319.217 1343.92,313.032 1352.439,312.602 C1361.462,312.602 1368.776,319.917 1368.776,328.94 C1368.655,331.346 1368.803,330.064 1368.25,332.775 C1370.584,331.793 1369.397,332.086 1371.798,331.844 C1373.914,331.878 1375.864,332.526 1377.382,334.044 C1379.347,330.609 1382.589,328.774 1386.502,328.577 C1392.218,328.672 1396.555,333.108 1396.84,338.742 L1244.901,338.742 C1245.899,335.268 1248.276,333.583 1251.714,332.96 C1251.23,330.59 1251.355,331.692 1251.253,329.666 C1251.253,322.247 1257.267,316.233 1264.686,316.233 L1265.8,316.289 C1269.268,310.32 1274.938,307.138 1281.76,306.793 z" fill="#D3F0FF"/>
    </g>
    <g>
      <path d="M1647.009,239.287 L1461.705,239.287 L1367.009,388.173 L1552.314,388.173 L1647.009,239.287 z" fill="url(#Gradient_11)"/>
      <path d="M1646.736,241.511 C1646.983,240.287 1646.856,241.057 1647.009,239.182 C1646.886,231.513 1641.572,224.777 1634.566,224.382 C1632.257,219.952 1628.467,217.602 1623.936,217.346 C1618.384,217.464 1613.303,221.677 1612.172,227.87 C1610.136,225.454 1607.265,224.496 1604.382,224.334 C1601.174,224.4 1599.677,225.328 1597.124,227.274 C1598.262,224.749 1598.39,221.859 1598.515,219.093 C1598.141,205.501 1589.384,196.187 1577.397,195.511 C1568.267,195.76 1561.302,201.313 1557.786,210.606 C1556.573,210.33 1557.331,210.462 1555.497,210.359 C1548.707,210.497 1542.603,215.313 1540.557,222.633 C1540.267,223.669 1540.168,224.76 1539.974,225.823 C1538.694,224.754 1537.11,224.422 1535.552,224.334 C1531.016,224.334 1527.339,228.44 1527.339,233.505 L1527.342,233.583 C1526.91,234.019 1527.194,233.704 1526.594,234.631 C1525.377,233.736 1523.848,233.652 1522.451,233.504 C1519.764,233.603 1518.516,234.416 1516.457,236.079 C1514.813,236.152 1515.63,236.117 1514.009,236.186 C1513.014,235.494 1513.621,235.84 1512.128,235.292 L1512.175,234.77 C1511.965,232.442 1511.075,230.171 1508.937,229.366 L1508.998,228.029 C1508.998,218.231 1501.885,210.289 1493.111,210.288 L1493.111,210.289 C1487.142,210.625 1482.18,213.735 1479.145,219.568 L1478.17,219.513 C1471.677,219.513 1466.414,225.391 1466.414,232.641 C1466.503,234.621 1466.394,233.544 1466.817,235.86 C1463.809,236.469 1461.729,238.115 1460.856,241.511 L1646.736,241.511 z" fill="#D3F0FF"/>
    </g>
  </g>
  <g id="Laubbäume">
    <g id="Baum">
      <g>
        <path d="M1598.156,501.955 C1624.452,501.955 1645.769,523.273 1645.769,549.569 C1645.769,575.865 1624.452,597.182 1598.156,597.182 C1571.86,597.182 1550.543,575.865 1550.543,549.569 C1550.543,523.273 1571.86,501.955 1598.156,501.955 z" clip-path="url(#Clip_7)" filter="url(#Shadow_8)" fill="rgba(0,0,0,0.75)"/>
        <path d="M1598.156,597.182 C1624.452,597.182 1645.769,575.865 1645.769,549.569 C1645.769,523.273 1624.452,501.955 1598.156,501.955 C1571.86,501.955 1550.543,523.273 1550.543,549.569 C1550.543,575.865 1571.86,597.182 1598.156,597.182 z" fill="url(#Gradient_12)"/>
      </g>
      <path d="M1598.818,544.867 C1597.431,544.871 1597.47,546.23 1597.324,547.515 C1597.299,558.13 1598.031,577.906 1596.643,578.895 C1595.254,579.885 1590.974,574.844 1578.809,562.707 C1576.158,560.096 1574.047,561.843 1576.665,564.719 C1583.342,571.628 1594.3,582.442 1595.21,584.526 C1596.12,586.609 1595.091,624.22 1595.091,643.578 L1603.2,643.578 C1603.218,623.837 1602.844,587.169 1603.111,584.925 C1603.377,582.681 1614.454,570.806 1620.954,563.905 C1621.9,562.922 1622.665,561.701 1621.756,560.938 C1620.846,560.175 1619.901,560.908 1619.159,561.574 C1619.088,561.618 1602.856,579.171 1601.452,578.895 C1600.381,578.62 1600.573,548.09 1600.544,547.515 C1600.362,545.631 1600.248,544.863 1598.818,544.867 z" fill="#050D10"/>
    </g>
    <g id="Baum">
      <g>
        <path d="M1655.417,537.146 C1675.179,537.146 1691.199,553.167 1691.199,572.928 C1691.199,592.69 1675.179,608.711 1655.417,608.711 C1635.655,608.711 1619.635,592.69 1619.635,572.928 C1619.635,553.167 1635.655,537.146 1655.417,537.146 z" clip-path="url(#Clip_9)" filter="url(#Shadow_10)" fill="rgba(0,0,0,0.75)"/>
        <path d="M1655.417,608.711 C1675.179,608.711 1691.199,592.69 1691.199,572.928 C1691.199,553.167 1675.179,537.146 1655.417,537.146 C1635.655,537.146 1619.635,553.167 1619.635,572.928 C1619.635,592.69 1635.655,608.711 1655.417,608.711 z" fill="url(#Gradient_13)"/>
      </g>
      <path d="M1655.915,569.395 C1654.872,569.398 1654.901,570.42 1654.792,571.385 C1654.773,579.362 1655.324,594.224 1654.28,594.968 C1653.237,595.711 1650.02,591.924 1640.878,582.802 C1638.885,580.84 1637.299,582.153 1639.266,584.314 C1644.284,589.506 1652.519,597.633 1653.203,599.199 C1653.887,600.765 1653.114,629.03 1653.114,643.578 L1659.208,643.578 C1659.221,628.743 1658.941,601.186 1659.141,599.499 C1659.341,597.813 1667.666,588.889 1672.551,583.703 C1673.262,582.963 1673.836,582.046 1673.153,581.473 C1672.469,580.899 1671.759,581.45 1671.201,581.951 C1671.148,581.984 1658.949,595.175 1657.894,594.968 C1657.089,594.761 1657.234,571.817 1657.212,571.385 C1657.075,569.969 1656.989,569.392 1655.915,569.395 z" fill="#050D10"/>
    </g>
    <g id="Baum">
      <g>
        <path d="M1267.987,537.146 C1287.749,537.146 1303.769,553.167 1303.769,572.928 C1303.769,592.69 1287.749,608.711 1267.987,608.711 C1248.225,608.711 1232.205,592.69 1232.205,572.928 C1232.205,553.167 1248.225,537.146 1267.987,537.146 z" clip-path="url(#Clip_11)" filter="url(#Shadow_12)" fill="rgba(0,0,0,0.75)"/>
        <path d="M1267.987,608.711 C1287.749,608.711 1303.769,592.69 1303.769,572.928 C1303.769,553.167 1287.749,537.146 1267.987,537.146 C1248.225,537.146 1232.205,553.167 1232.205,572.928 C1232.205,592.69 1248.225,608.711 1267.987,608.711 z" fill="url(#Gradient_14)"/>
      </g>
      <path d="M1268.484,569.395 C1267.442,569.398 1267.471,570.42 1267.361,571.385 C1267.343,579.362 1267.893,594.224 1266.85,594.968 C1265.806,595.711 1262.589,591.924 1253.447,582.802 C1251.455,580.84 1249.868,582.153 1251.836,584.314 C1256.854,589.506 1265.089,597.633 1265.773,599.199 C1266.457,600.765 1265.683,629.03 1265.683,643.578 L1271.777,643.578 C1271.791,628.743 1271.51,601.186 1271.71,599.499 C1271.911,597.813 1280.235,588.889 1285.12,583.703 C1285.831,582.963 1286.406,582.046 1285.722,581.473 C1285.039,580.899 1284.329,581.45 1283.771,581.951 C1283.718,581.984 1271.519,595.175 1270.464,594.968 C1269.659,594.761 1269.803,571.817 1269.781,571.385 C1269.645,569.969 1269.559,569.392 1268.484,569.395 z" fill="#050D10"/>
    </g>
  </g>
  <g id="Boden">
    <path d="M1863.497,643.82 L1134.503,643.82 C1127.875,643.82 1122.503,649.193 1122.503,655.82 L1122.503,674.744 C1122.503,681.371 1127.875,686.744 1134.503,686.744 L1863.497,686.744 C1870.125,686.744 1875.497,681.371 1875.497,674.744 L1875.497,655.82 C1875.497,649.193 1870.125,643.82 1863.497,643.82 z" fill="#11303F"/>
  </g>
  <g id="Zelt">
    <path d="M1498.096,539.261 L1425.738,618.511 L1431.24,618.511 C1431.239,618.511 1438.075,643.751 1438.075,643.751 L1498.096,643.751 L1498.096,643.647 L1558.113,643.647 C1558.113,643.647 1564.949,618.407 1564.949,618.407 L1570.451,618.407 L1498.1,539.365 L1498.096,539.261 z" fill="url(#Gradient_15)"/>
    <path d="M1498.093,539.261 L1498.093,539.264 L1425.737,618.51 C1449.855,605.375 1473.746,592.246 1497.863,579.109 C1521.983,592.242 1546.331,605.378 1570.451,618.511 L1498.095,539.264 L1498.095,539.261 L1498.094,539.263 L1498.093,539.261 z" fill="#6A3E20" fill-opacity="0.435"/>
    <path d="M1497.862,539.261 L1425.738,618.51 C1450.412,604.677 1473.989,589.278 1497.863,574.107 C1516.053,585.632 1534.458,597.188 1552.869,608.356 C1558.608,611.838 1564.354,615.658 1570.451,618.51 L1497.862,539.261 z" fill="url(#Gradient_16)"/>
    <path d="M1513.842,643.818 L1481.577,643.818 L1497.727,587.278 L1513.842,643.818 z" fill="#120B05"/>
    <path d="M1497.692,587.278 C1488.518,601.529 1472.522,628.164 1457.055,636.744 C1457.055,636.745 1474.466,643.976 1481.577,643.818 C1491.024,627.414 1495.917,606.823 1497.635,587.859 C1499.754,607.451 1503.917,626.559 1513.842,643.751 C1520.953,643.909 1538.364,636.678 1538.364,636.678 C1520.885,624.983 1508.326,604.853 1497.635,587.274 L1497.727,587.278 L1497.692,587.278 L1497.692,587.278 z" fill="#C05305"/>
    <path d="M1569.066,618.33 L1594.817,643.695 L1595.815,643.695 L1570.451,618.511 L1569.066,618.33 z" fill="#C0570D"/>
    <path d="M1427.389,618.244 L1401.637,643.61 L1400.64,643.61 L1426.004,618.425 L1427.389,618.244 z" fill="#C0570D"/>
  </g>
  <g id="Flammen">
    <g opacity="0.3">
      <path d="M1333.992,658.641 C1345.016,658.641 1353.953,650.576 1353.953,640.627 C1353.787,635.514 1351.95,629.609 1349.204,623.885 C1348.869,623.187 1347.979,627.149 1343.615,628.464 C1345.4,626.009 1347.467,620.497 1347.106,619.853 C1343.341,613.146 1338.528,607.036 1333.992,603.213 C1326.577,625.661 1314.659,623.444 1314.031,640.627 C1314.031,650.576 1322.968,658.641 1333.992,658.641 z" fill="#FFE436"/>
      <g>
        <path d="M1333.992,603.213 C1338.528,607.036 1343.341,613.146 1347.106,619.853 C1347.467,620.497 1345.4,626.009 1343.615,628.464 C1347.979,627.149 1348.869,623.187 1349.204,623.885 C1351.95,629.609 1353.787,635.514 1353.953,640.627 C1353.953,650.576 1345.016,658.641 1333.992,658.641 C1322.968,658.641 1314.031,650.576 1314.031,640.627 C1314.659,623.444 1326.577,625.661 1333.992,603.213 z" fill="rgba(0,0,0,1)" clip-path="url(#Clip_13)" filter="url(#Shadow_14)"/>
        <path d="M1328.353,609.904 C1332.024,612.998 1336.194,618.289 1339.475,624.135 C1338.735,622.817 1338.473,621.656 1338.409,620.519 C1338.382,620.035 1338.401,619.644 1338.442,619.29 C1338.472,619.035 1338.494,618.928 1338.505,618.887 C1338.43,619.171 1338.255,619.685 1338.023,620.275 C1337.505,621.592 1336.856,622.88 1336.539,623.316 C1331.607,630.095 1338.111,639.26 1346.138,636.842 C1349.036,635.969 1351.436,634.444 1353.375,632.468 C1354.008,631.823 1354.563,631.159 1355.074,630.463 C1355.411,630.005 1355.624,629.687 1355.976,629.141 C1356.032,629.053 1356.052,629.023 1356.031,629.053 C1355.979,629.128 1355.917,629.214 1355.835,629.32 C1355.674,629.528 1355.491,629.743 1355.258,629.983 C1354.811,630.441 1354.297,630.874 1353.62,631.287 C1352.356,632.06 1350.851,632.561 1349.076,632.553 C1345.102,632.537 1342.585,630.318 1341.315,627.67 C1343.729,632.702 1345.093,637.394 1345.207,640.91 L1353.953,640.627 L1345.203,640.627 C1345.203,645.532 1340.372,649.891 1333.992,649.891 C1327.612,649.891 1322.781,645.532 1322.781,640.627 L1322.775,640.946 C1322.939,636.457 1323.826,634.48 1326.683,631.192 C1327.231,630.56 1329.495,628.065 1329.921,627.584 C1331.473,625.835 1332.745,624.284 1333.995,622.565 C1337.385,617.901 1340.102,612.611 1342.3,605.958 L1333.992,603.213 L1328.353,609.904 z M1339.631,596.522 C1334.895,592.531 1327.626,594.588 1325.683,600.468 C1324.054,605.4 1322.169,609.071 1319.84,612.274 C1318.963,613.481 1318.034,614.614 1316.828,615.973 C1316.518,616.323 1314.17,618.91 1313.472,619.714 C1308.15,625.84 1305.608,631.509 1305.287,640.308 C1305.283,640.414 1305.281,640.521 1305.281,640.627 C1305.281,655.62 1318.324,667.391 1333.992,667.391 C1349.66,667.391 1362.703,655.62 1362.703,640.627 C1362.703,640.532 1362.701,640.438 1362.698,640.344 C1362.496,634.099 1360.476,627.152 1357.094,620.101 C1355.771,617.343 1353.193,615.07 1349.148,615.054 C1347.339,615.046 1345.796,615.559 1344.49,616.357 C1343.774,616.795 1343.216,617.265 1342.722,617.771 C1342.259,618.247 1341.949,618.648 1341.626,619.115 C1341.503,619.295 1341.427,619.41 1341.264,619.663 C1341.01,620.057 1340.938,620.156 1340.883,620.212 C1340.922,620.172 1341.029,620.104 1341.091,620.085 L1343.615,628.464 L1350.69,633.611 C1352.029,631.771 1353.293,629.262 1354.307,626.684 C1354.771,625.506 1355.156,624.369 1355.423,623.363 C1355.607,622.667 1355.743,622.008 1355.823,621.323 C1355.89,620.751 1355.917,620.174 1355.882,619.538 C1355.809,618.246 1355.521,616.967 1354.735,615.569 C1350.484,607.996 1345.027,601.07 1339.631,596.522 z" fill="rgba(0,0,0,1)" clip-path="url(#Clip_13)" filter="url(#Shadow_14)"/>
      </g>
    </g>
    <path d="M1333.992,658.641 C1345.016,658.641 1353.953,650.576 1353.953,640.627 C1353.787,635.514 1351.95,629.609 1349.204,623.885 C1348.869,623.187 1347.979,627.149 1343.615,628.464 C1345.4,626.009 1347.467,620.497 1347.106,619.853 C1343.341,613.146 1338.528,607.036 1333.992,603.213 C1326.577,625.661 1314.659,623.444 1314.031,640.627 C1314.031,650.576 1322.968,658.641 1333.992,658.641 z" fill="#FFE436"/>
    <path d="M1333.992,658.016 C1342.07,658.016 1348.618,652.106 1348.618,644.816 C1348.497,641.069 1347.151,636.742 1345.139,632.548 C1344.894,632.036 1340.832,642.738 1336.269,644.229 C1329.921,642.651 1329.525,628.013 1329.525,628.013 C1329.525,628.013 1319.825,632.225 1319.366,644.816 C1319.366,652.106 1325.914,658.016 1333.992,658.016 z" fill="url(#Gradient_17)"/>
  </g>
  <g id="Lagerplatz">
    <path d="M1333.992,671.69 C1367.137,671.69 1394.007,668.045 1394.007,663.549 C1394.007,659.053 1367.137,655.408 1333.992,655.408 C1300.847,655.408 1273.977,659.053 1273.977,663.549 C1273.977,668.045 1300.847,671.69 1333.992,671.69 z" fill="#4D7D95"/>
    <g>
      <path d="M1357.964,658.139 L1357.196,658.25 C1356.757,658.129 1357.041,658.191 1356.339,658.145 C1355.734,658.234 1356.083,658.189 1354.812,658.217 C1349.674,658.332 1344.534,658.323 1339.395,658.337 C1329.992,658.364 1320.588,658.363 1311.184,658.337 C1305.552,658.321 1299.915,658.359 1294.283,658.174 L1293.963,658.145 C1294.212,658.175 1294.105,658.168 1294.283,658.174 C1297.1,658.482 1298.52,662.046 1298.408,665.907 L1362.839,665.907 L1362.915,665.262 C1362.915,661.328 1360.698,658.139 1357.964,658.139 L1357.964,658.139 z" fill="#0F2733"/>
      <path d="M1295.999,658.139 C1293.264,658.139 1291.047,661.328 1291.047,665.262 L1291.093,665.907 L1300.905,665.907 L1300.951,665.262 C1300.951,661.328 1298.734,658.139 1295.999,658.139 z" fill="#5B92AE"/>
    </g>
    <g>
      <path d="M1362.905,651.66 L1362.137,651.772 C1361.699,651.65 1361.982,651.712 1361.281,651.666 C1360.675,651.755 1361.025,651.71 1359.754,651.738 C1354.616,651.853 1349.475,651.844 1344.337,651.858 C1334.933,651.885 1325.529,651.885 1316.125,651.858 C1310.493,651.842 1304.856,651.88 1299.225,651.695 L1298.905,651.666 C1299.153,651.696 1299.046,651.689 1299.225,651.695 C1302.041,652.004 1303.461,655.568 1303.35,659.429 L1367.78,659.429 L1367.857,658.783 C1367.857,654.849 1365.64,651.661 1362.905,651.661 L1362.905,651.66 z" fill="#0F2733"/>
      <path d="M1300.94,651.661 C1298.205,651.661 1295.989,654.849 1295.989,658.783 L1296.034,659.429 L1305.847,659.429 L1305.892,658.783 C1305.892,654.849 1303.675,651.661 1300.94,651.661 z" fill="#5B92AE"/>
    </g>
    <g>
      <path d="M1367.525,658.139 L1366.757,658.25 C1366.319,658.129 1366.602,658.191 1365.901,658.145 C1365.295,658.234 1365.645,658.189 1364.374,658.217 C1359.236,658.332 1354.095,658.323 1348.957,658.337 C1339.553,658.364 1330.149,658.363 1320.745,658.337 C1315.113,658.321 1309.476,658.359 1303.845,658.174 L1303.525,658.145 C1303.773,658.175 1303.666,658.168 1303.845,658.174 C1306.661,658.482 1308.081,662.046 1307.97,665.907 L1372.4,665.907 L1372.477,665.262 C1372.477,661.328 1370.26,658.139 1367.525,658.139 L1367.525,658.139 z" fill="#0F2733"/>
      <path d="M1305.56,658.139 C1302.825,658.139 1300.609,661.328 1300.609,665.262 L1300.654,665.907 L1310.467,665.907 L1310.512,665.262 C1310.512,661.328 1308.295,658.139 1305.56,658.139 z" fill="#5B92AE"/>
    </g>
  </g>
  <g id="Mond">
    <path d="M1905.27,164.209 C1935.242,164.209 1959.539,139.911 1959.539,109.939 C1959.539,79.967 1935.242,55.67 1905.27,55.67 C1875.297,55.67 1851,79.967 1851,109.939 C1851,139.911 1875.297,164.209 1905.27,164.209 z" fill="#FFF196" fill-opacity="0.714" opacity="0.3"/>
    <path d="M1905.27,74.789 C1900.688,74.723 1896.269,75.837 1892.08,77.608 C1894.48,77.364 1893.336,77.432 1895.511,77.377 C1912.064,77.377 1925.484,90.797 1925.484,107.351 C1925.484,123.904 1912.064,137.324 1895.511,137.324 C1893.336,137.269 1894.48,137.337 1892.08,137.093 C1896.214,139.055 1900.731,139.797 1905.27,139.912 C1923.253,139.912 1937.831,125.334 1937.831,107.351 C1937.831,89.367 1923.253,74.789 1905.27,74.789 z" fill="#FFE436"/>
  </g>
  <g id="Sterne">
    <path d="M1761.587,74.786 L1763.087,65.679 L1772.194,64.179 L1763.087,62.679 L1761.587,53.572 L1760.087,62.679 L1750.98,64.179 L1760.087,65.679 z" fill="#FFF196" fill-opacity="0.714"/>
    <path d="M1632.192,124.494 L1633.645,115.673 L1642.466,114.22 L1633.645,112.768 L1632.192,103.947 L1630.739,112.768 L1621.918,114.22 L1630.739,115.673 z" fill="#FFF196" fill-opacity="0.714"/>
    <path d="M1199.138,114.062 L1200.841,103.728 L1211.175,102.026 L1200.841,100.324 L1199.138,89.989 L1197.436,100.324 L1187.102,102.026 L1197.436,103.728 z" fill="#FFF196" fill-opacity="0.714"/>
    <path d="M1254.975,189.899 L1256.384,181.343 L1264.939,179.934 L1256.384,178.525 L1254.975,169.969 L1253.566,178.525 L1245.01,179.934 L1253.566,181.343 z" fill="#FFF196" fill-opacity="0.714"/>
    <path d="M1328.5,132.221 L1330.202,121.887 L1340.536,120.184 L1330.202,118.482 L1328.5,108.148 L1326.798,118.482 L1316.464,120.184 L1326.798,121.887 z" fill="#FFF196" fill-opacity="0.714"/>
    <path d="M1350.879,138.908 L1351.352,136.037 L1354.223,135.564 L1351.352,135.092 L1350.879,132.221 L1350.406,135.092 L1347.535,135.564 L1350.406,136.037 z" fill="#FFF196" fill-opacity="0.714"/>
    <path d="M1604.013,128.239 L1604.699,124.072 L1608.866,123.386 L1604.699,122.7 L1604.013,118.533 L1603.327,122.7 L1599.16,123.386 L1603.327,124.072 z" fill="#FFF196" fill-opacity="0.714"/>
    <path d="M1587.387,94.052 L1588.579,86.816 L1595.815,85.624 L1588.579,84.432 L1587.387,77.196 L1586.195,84.432 L1578.959,85.624 L1586.195,86.816 z" fill="#FFF196" fill-opacity="0.714"/>
    <path d="M1809.486,110 L1810.614,103.154 L1817.46,102.026 L1810.614,100.898 L1809.486,94.052 L1808.359,100.898 L1801.512,102.026 L1808.359,103.154 z" fill="#FFF196" fill-opacity="0.714"/>
  </g>
  <g id="ripple">
    <path d="M1850.907,695.996 L1147.391,695.996" fill-opacity="0" stroke="#1E4050" stroke-width="20" stroke-linecap="round"/>
    <path d="M1822.196,715.792 L1187.602,715.792" fill-opacity="0" stroke="#1E4050" stroke-width="20" stroke-linecap="round"/>
    <path d="M1782.423,753.65 L1216.577,753.65" fill-opacity="0" stroke="#1E4050" stroke-width="20" stroke-linecap="round"/>
    <path d="M1761.286,773.316 L1237.714,773.316" fill-opacity="0" stroke="#1E4050" stroke-width="20" stroke-linecap="round"/>
    <path d="M1933.671,715.792 L1678.221,715.792" fill-opacity="0" stroke="#049BB5" stroke-width="20" stroke-linecap="round"/>
    <path d="M1822.196,734.792 L1187.602,734.792" fill-opacity="0" stroke="#1E4050" stroke-width="20" stroke-linecap="round"/>
    <path d="M1279.95,715.792 L1132.262,715.792" fill-opacity="0" stroke="#049BB5" stroke-width="20" stroke-linecap="round"/>
    <path d="M1365.723,715.792 L1328.796,715.792" fill-opacity="0" stroke="#0691AA" stroke-width="20" stroke-linecap="round"/>
    <path d="M1482.718,734.792 L1398.357,734.792" fill-opacity="0" stroke="#0691AA" stroke-width="20" stroke-linecap="round"/>
    <path d="M1304.269,753.65 L1161.443,753.65" fill-opacity="0" stroke="#029FBA" stroke-width="20" stroke-linecap="round"/>
    <path d="M1594.416,734.792 L1544.114,734.792" fill-opacity="0" stroke="#0691AA" stroke-width="20" stroke-linecap="round"/>
    <path d="M1712.214,753.65 L1650.385,753.65" fill-opacity="0" stroke="#01A0BB" stroke-width="20" stroke-linecap="round"/>
    <path d="M1541.107,773.316 L1479.279,773.316" fill-opacity="0" stroke="#01A0BB" stroke-width="20" stroke-linecap="round"/>
  </g>
</svg>
